<svg xmlns="http://www.w3.org/2000/svg" viewBox="0 0 200 200">
  <rect width="200" height="200" rx="20" fill="#1a2a0a"/>
  <!-- Sun -->
  <circle cx="100" cy="75" r="30" fill="#f0c040"/>
  <!-- Sun rays -->
  <line x1="100" y1="30" x2="100" y2="18" stroke="#f0c040" stroke-width="4" stroke-linecap="round"/>
  <line x1="100" y1="120" x2="100" y2="132" stroke="#f0c040" stroke-width="4" stroke-linecap="round"/>
  <line x1="55" y1="75" x2="43" y2="75" stroke="#f0c040" stroke-width="4" stroke-linecap="round"/>
  <line x1="145" y1="75" x2="157" y2="75" stroke="#f0c040" stroke-width="4" stroke-linecap="round"/>
  <line x1="68" y1="43" x2="59" y2="34" stroke="#f0c040" stroke-width="4" stroke-linecap="round"/>
  <line x1="132" y1="43" x2="141" y2="34" stroke="#f0c040" stroke-width="4" stroke-linecap="round"/>
  <line x1="68" y1="107" x2="59" y2="116" stroke="#f0c040" stroke-width="4" stroke-linecap="round"/>
  <line x1="132" y1="107" x2="141" y2="116" stroke="#f0c040" stroke-width="4" stroke-linecap="round"/>
  <!-- Solar panel -->
  <rect x="30" y="130" width="140" height="35" rx="4" fill="#1e40af"/>
  <!-- Panel grid lines -->
  <line x1="77" y1="130" x2="77" y2="165" stroke="#60a5fa" stroke-width="1.5"/>
  <line x1="100" y1="130" x2="100" y2="165" stroke="#60a5fa" stroke-width="1.5"/>
  <line x1="123" y1="130" x2="123" y2="165" stroke="#60a5fa" stroke-width="1.5"/>
  <line x1="30" y1="147" x2="170" y2="147" stroke="#60a5fa" stroke-width="1.5"/>
  <!-- Panel legs -->
  <line x1="70" y1="165" x2="65" y2="178" stroke="#c8960c" stroke-width="3"/>
  <line x1="130" y1="165" x2="135" y2="178" stroke="#c8960c" stroke-width="3"/>
  <text x="100" y="196" font-family="Arial" font-size="9" font-weight="bold" fill="#f0c040" text-anchor="middle">SAVANNAH SOLAR ENERGY</text>
</svg>
